# xmcd
# 
# Track frame offsets:
#     187
#     20117
#     45817
#     70825
#     93755
#     121667
#     151307
#     177507
# 
# Disc length: 2472
# 
# Revision: 7
# Processed by: cddbd v1.5.2PL0 Copyright (c) Steve Scherf et al.
# Submitted via: fre:ac v1.0.31
# 
DISCID=5809a608
DTITLE=Lee Ritenour - The Best (JVC)
DYEAR=1986
DGENRE=Fusion
TTITLE0=Captain Caribé
TTITLE1=Morning Glory
TTITLE2=Captain Fingers
TTITLE3=Rio Funk
TTITLE4=Sugar Loaf Express
TTITLE5=Crystal Morning
TTITLE6=Rainbow
TTITLE7=Dream Walk
EXTD=
EXTT0=
EXTT1=
EXTT2=
EXTT3=
EXTT4=
EXTT5=
EXTT6=
EXTT7=
PLAYORDER=
